<svg width="26" height="26" viewBox="0 0 26 26" fill="none" xmlns="http://www.w3.org/2000/svg">
    <path d="M23.0795 10.8652H22.2323V10.8216H12.7664V15.0286H18.7104C17.8433 17.4776 15.5131 19.2357 12.7664 19.2357C9.28139 19.2357 6.45583 16.4101 6.45583 12.9251C6.45583 9.44008 9.28139 6.61452 12.7664 6.61452C14.3751 6.61452 15.8386 7.22139 16.9529 8.21267L19.9278 5.23776C18.0494 3.4871 15.5367 2.40747 12.7664 2.40747C6.95804 2.40747 2.24878 7.11674 2.24878 12.9251C2.24878 18.7334 6.95804 23.4427 12.7664 23.4427C18.5748 23.4427 23.284 18.7334 23.284 12.9251C23.284 12.2199 23.2114 11.5315 23.0795 10.8652Z" fill="#FFC107"/>
    <path d="M3.46143 8.02967L6.91699 10.5639C7.85201 8.24896 10.1165 6.61452 12.7664 6.61452C14.375 6.61452 15.8386 7.22139 16.9529 8.21267L19.9278 5.23776C18.0494 3.4871 15.5367 2.40747 12.7664 2.40747C8.72655 2.40747 5.22313 4.68822 3.46143 8.02967Z" fill="#FF3D00"/>
    <path d="M12.7664 23.4428C15.4831 23.4428 17.9516 22.4032 19.8179 20.7125L16.5627 17.9579C15.4713 18.7879 14.1376 19.2369 12.7664 19.2358C10.0308 19.2358 7.70794 17.4914 6.83287 15.0571L3.40308 17.6997C5.14374 21.1058 8.67872 23.4428 12.7664 23.4428Z" fill="#4CAF50"/>
    <path d="M23.0797 10.8653H22.2325V10.8217H12.7666V15.0287H18.7106C18.2958 16.1943 17.5486 17.2128 16.5614 17.9584L16.5629 17.9573L19.8181 20.7119C19.5878 20.9212 23.2842 18.184 23.2842 12.9252C23.2842 12.22 23.2117 11.5316 23.0797 10.8653Z" fill="#1976D2"/>
</svg>
