<?xml version="1.0" encoding="UTF-8" standalone="no"?>
<!-- Created with Inkscape (http://www.inkscape.org/) -->

<svg
   width="146.211mm"
   height="77.424828mm"
   viewBox="0 0 146.211 77.424829"
   version="1.1"
   id="svg1"
   xml:space="preserve"
   sodipodi:docname="logo-medium-bg.svg"
   xmlns:inkscape="http://www.inkscape.org/namespaces/inkscape"
   xmlns:sodipodi="http://sodipodi.sourceforge.net/DTD/sodipodi-0.dtd"
   xmlns:xlink="http://www.w3.org/1999/xlink"
   xmlns="http://www.w3.org/2000/svg"
   xmlns:svg="http://www.w3.org/2000/svg"><sodipodi:namedview
     id="namedview1"
     pagecolor="#ffffff"
     bordercolor="#111111"
     borderopacity="0"
     inkscape:showpageshadow="0"
     inkscape:pageopacity="0"
     inkscape:pagecheckerboard="true"
     inkscape:deskcolor="#d1d1d1"
     inkscape:document-units="mm"
     inkscape:export-bgcolor="#ffffff00"
     showborder="false"
     borderlayer="true" /><defs
     id="defs1"><clipPath
       clipPathUnits="userSpaceOnUse"
       id="clipPath10"><path
         d="M 0,0 H 7766.6665 V 3879.1665 H 0 Z"
         transform="scale(0.24000001)"
         clip-rule="evenodd"
         id="path10" /></clipPath><linearGradient
       x1="0"
       y1="0"
       x2="1"
       y2="0"
       gradientUnits="userSpaceOnUse"
       gradientTransform="matrix(1041.6667,0,0,-20.833334,1467.4901,-991.97336)"
       spreadMethod="pad"
       id="linearGradient16"><stop
         style="stop-opacity:1;stop-color:#fe8dc6"
         offset="0"
         id="stop15" /><stop
         style="stop-opacity:1;stop-color:#fed1c7"
         offset="1"
         id="stop16" /></linearGradient><clipPath
       clipPathUnits="userSpaceOnUse"
       id="clipPath16"><path
         d="M 3058.3333,1225 H 4708.3331 V 2241.6665 H 3058.3333 Z"
         transform="matrix(0.15152392,0,0,0.1514754,-463.41789,-185.55737)"
         clip-rule="evenodd"
         id="path16" /></clipPath><clipPath
       clipPathUnits="userSpaceOnUse"
       id="clipPath17"><path
         d="M 3058.3333,1225 H 4708.3331 V 2241.6665 H 3058.3333 Z"
         transform="matrix(0.03568489,0,0,0.03567347,-108.01506,-35.751965)"
         clip-rule="evenodd"
         id="path17" /></clipPath><clipPath
       clipPathUnits="userSpaceOnUse"
       id="clipPath64"><path
         d="M 0,0 H 7829.1665 V 3879.1665 H 0 Z"
         transform="scale(0.31999999)"
         clip-rule="evenodd"
         id="path64" /></clipPath><linearGradient
       inkscape:collect="always"
       xlink:href="#linearGradient16"
       id="linearGradient2"
       gradientUnits="userSpaceOnUse"
       gradientTransform="matrix(1041.6667,0,0,-20.833334,1467.4901,-991.97336)"
       x1="0"
       y1="0"
       x2="1"
       y2="0"
       spreadMethod="pad" /></defs><g
     id="g1"
     inkscape:groupmode="layer"
     inkscape:label="1"
     transform="matrix(0.26458333,0,0,0.26458334,-669.19081,152.36955)"><g
       id="g64"
       clip-path="url(#clipPath64)"
       transform="translate(1562.5,-993.74998)"><path
         d="M 602,626 V 210 c -6e-5,-0.65662 0.064,-1.30692 0.19208,-1.95091 0.12811,-0.644 0.31775,-1.2693 0.56903,-1.87593 0.25128,-0.60665 0.55926,-1.18293 0.92407,-1.72885 0.36481,-0.54596 0.77936,-1.05109 1.24365,-1.51539 0.46424,-0.46431 0.96936,-0.87886 1.51532,-1.24365 0.54596,-0.36479 1.12226,-0.67282 1.72888,-0.92409 0.60663,-0.25126 1.232,-0.44094 1.87598,-0.56904 C 610.69299,200.06404 611.34332,200 612,200 h 640 c 0.6566,0 1.3069,0.064 1.9508,0.19212 0.6439,0.1281 1.2693,0.3178 1.8759,0.56906 0.6065,0.25127 1.1828,0.5593 1.7288,0.92409 0.5459,0.36479 1.0511,0.77934 1.5154,1.24365 0.4643,0.4643 0.8788,0.96943 1.2437,1.51537 0.3647,0.54594 0.6727,1.12222 0.9241,1.72887 0.2513,0.60663 0.441,1.23193 0.569,1.87593 0.1282,0.64399 0.1923,1.29429 0.1923,1.95091 v 416 c 0,0.65668 -0.064,1.30695 -0.1923,1.95093 -0.128,0.64398 -0.3177,1.26922 -0.569,1.87585 -0.2514,0.60663 -0.5594,1.18292 -0.9243,1.72888 -0.3647,0.54596 -0.7792,1.05109 -1.2435,1.51538 -0.4643,0.4643 -0.9695,0.87879 -1.5154,1.2436 -0.546,0.3648 -1.1223,0.67285 -1.7288,0.92413 -0.6066,0.25128 -1.232,0.44092 -1.8759,0.56903 C 1253.3069,635.93591 1252.6566,636 1252,636 H 612 c -0.65668,0 -1.30701,-0.0641 -1.95099,-0.1922 -0.64398,-0.12811 -1.26935,-0.31775 -1.87598,-0.56903 -0.60662,-0.25128 -1.18298,-0.55933 -1.72894,-0.92413 -0.54596,-0.36481 -1.05102,-0.7793 -1.51526,-1.2436 -0.46429,-0.46429 -0.87884,-0.96942 -1.24365,-1.51538 -0.36481,-0.54596 -0.67279,-1.12225 -0.92407,-1.72888 -0.25128,-0.60663 -0.44092,-1.23187 -0.56903,-1.87585 C 602.06396,627.30695 601.99994,626.65668 602,626 Z"
         style="fill:#1e2022;fill-opacity:1;fill-rule:nonzero;stroke:none"
         transform="matrix(0.83728558,0,0,0.67116795,462.67918,283.63153)"
         clip-path="url(#clipPath10)"
         id="path47"
         inkscape:export-filename="OneDrive\Desktop\logo-little-bg.svg"
         inkscape:export-xdpi="500"
         inkscape:export-ydpi="500" /><path
         d="m 0,149 h 250 v 5 H 0 Z"
         style="fill:url(#linearGradient2);fill-opacity:1;fill-rule:nonzero;stroke:none"
         transform="matrix(2.1118777,0,0,2.1125541,978.68191,375.99998)"
         clip-path="url(#clipPath16)"
         id="path49" /><path
         d="M 1.7914,12.861 1.1229498,12.03212 H 11.63095 v 4.2246 H 4.3849502 l 1.0963001,0.82888 v 6.818201 H 9.812851 v 4.251301 H 4.3850508 l 1.0963001,0.802139 v 6.844898 h 6.1497001 v 4.224602 H 1.7914515 v -4.224602 -7.6471 -4.251299 -11.043 z m 14.117708,3.341999 h -3.984 v -4.2513 h 11.657999 v 4.2513 h -5.0802 l 1.0963,0.802139 v 22.967999 h -3.6898 V 16.203136 Z m 12.887658,23.743527 h -3.6898 V 12.780525 l -0.668449,-0.82888 h 4.358301 V 39.946648 Z M 30.32082,12.032 h 6.176498 l 2.486599,9.438501 2.513401,-9.4385 h 5.508 L 46.978578,40.027 H 43.315477 V 19.492001 l -4.3316,16.257 v 0.02674 -0.02674 0.02674 -0.02674 l -4.304802,-16.257 V 40.027 h -3.6898 V 12.834 l -0.668457,-0.802 z m 29.678791,2.647 v 5.775399 H 56.33651 v -4.2246 h -5.4011 l 1.0695,0.828881 v 3.3957 l 7.994701,9.812801 v 4.224602 2.887699 c 0,1.417099 -1.1497,2.647099 -2.647099,2.647099 h -6.363598 c -1.497299,0 -2.647098,-1.229901 -2.647098,-2.647099 v -5.9626 h 3.663101 v 4.384998 h 4.3316 v -4.2246 l -7.994701,-9.812799 v -7.0856 c 0,-1.4973 1.1497,-2.647101 2.647098,-2.647101 h 6.363602 c 1.497299,0 2.647099,1.1497 2.647099,2.647101 z"
         style="fill:#ffffff;fill-opacity:1;fill-rule:nonzero;stroke:none"
         transform="matrix(8.9673795,0,0,8.9702518,968.61199,320.70413)"
         clip-path="url(#clipPath17)"
         id="path50" /></g></g></svg>
