<?xml version="1.0" encoding="UTF-8" standalone="no"?>
<!-- Created with Inkscape (http://www.inkscape.org/) -->

<svg
   width="139.69189mm"
   height="73.400665mm"
   viewBox="0 0 139.6919 73.400667"
   version="1.1"
   id="svg1"
   xml:space="preserve"
   sodipodi:docname="logo-medium-bg.svg"
   xmlns:inkscape="http://www.inkscape.org/namespaces/inkscape"
   xmlns:sodipodi="http://sodipodi.sourceforge.net/DTD/sodipodi-0.dtd"
   xmlns:xlink="http://www.w3.org/1999/xlink"
   xmlns="http://www.w3.org/2000/svg"
   xmlns:svg="http://www.w3.org/2000/svg"><sodipodi:namedview
     id="namedview1"
     pagecolor="#ffffff"
     bordercolor="#111111"
     borderopacity="0"
     inkscape:showpageshadow="0"
     inkscape:pageopacity="0"
     inkscape:pagecheckerboard="true"
     inkscape:deskcolor="#d1d1d1"
     inkscape:document-units="mm"
     inkscape:export-bgcolor="#ffffff00"
     showborder="false"
     borderlayer="true" /><defs
     id="defs1"><linearGradient
       x1="0"
       y1="0"
       x2="1"
       y2="0"
       gradientUnits="userSpaceOnUse"
       gradientTransform="matrix(1041.6667,0,0,-20.833334,1467.4901,-991.97336)"
       spreadMethod="pad"
       id="linearGradient16"><stop
         style="stop-opacity:1;stop-color:#fe8dc6"
         offset="0"
         id="stop15" /><stop
         style="stop-opacity:1;stop-color:#fed1c7"
         offset="1"
         id="stop16" /></linearGradient><clipPath
       clipPathUnits="userSpaceOnUse"
       id="clipPath16"><path
         d="M 3058.3333,1225 H 4708.3331 V 2241.6665 H 3058.3333 Z"
         transform="matrix(0.15152392,0,0,0.1514754,-463.41789,-185.55737)"
         clip-rule="evenodd"
         id="path16" /></clipPath><clipPath
       clipPathUnits="userSpaceOnUse"
       id="clipPath17"><path
         d="M 3058.3333,1225 H 4708.3331 V 2241.6665 H 3058.3333 Z"
         transform="matrix(0.03568489,0,0,0.03567347,-108.01506,-35.751965)"
         clip-rule="evenodd"
         id="path17" /></clipPath><clipPath
       clipPathUnits="userSpaceOnUse"
       id="clipPath64"><path
         d="M 0,0 H 7829.1665 V 3879.1665 H 0 Z"
         transform="scale(0.31999999)"
         clip-rule="evenodd"
         id="path64" /></clipPath><linearGradient
       inkscape:collect="always"
       xlink:href="#linearGradient16"
       id="linearGradient2"
       gradientUnits="userSpaceOnUse"
       gradientTransform="matrix(1041.6667,0,0,-20.833334,1467.4901,-991.97336)"
       x1="0"
       y1="0"
       x2="1"
       y2="0"
       spreadMethod="pad" /></defs><g
     id="g1"
     inkscape:groupmode="layer"
     inkscape:label="1"
     transform="matrix(0.26458333,0,0,0.26458334,-672.35435,149.71094)"><g
       id="g64"
       clip-path="url(#clipPath64)"
       transform="translate(1562.5,-993.74998)"><path
         d="m 0,149 h 250 v 5 H 0 Z"
         style="fill:url(#linearGradient2);fill-opacity:1;fill-rule:nonzero;stroke:none"
         transform="matrix(2.1118777,0,0,2.1125541,978.68191,379.99998)"
         clip-path="url(#clipPath16)"
         id="path49"
         inkscape:export-filename="OneDrive\Desktop\logo-small.svg"
         inkscape:export-xdpi="500"
         inkscape:export-ydpi="500" /><path
         d="M 1.7914,12.861 1.1229498,12.03212 H 11.63095 v 4.2246 H 4.3849502 l 1.0963001,0.82888 v 6.818201 H 9.812851 v 4.251301 H 4.3850508 l 1.0963001,0.802139 v 6.844898 h 6.1497001 v 4.224602 H 1.7914515 v -4.224602 -7.6471 -4.251299 -11.043 z m 14.117708,3.341999 h -3.984 v -4.2513 h 11.657999 v 4.2513 h -5.0802 l 1.0963,0.802139 v 22.967999 h -3.6898 V 16.203136 Z m 12.887658,23.743527 h -3.6898 V 12.780525 l -0.668449,-0.82888 h 4.358301 V 39.946648 Z M 30.32082,12.032 h 6.176498 l 2.486599,9.438501 2.513401,-9.4385 h 5.508 L 46.978578,40.027 H 43.315477 V 19.492001 l -4.3316,16.257 v 0.02674 -0.02674 0.02674 -0.02674 l -4.304802,-16.257 V 40.027 h -3.6898 V 12.834 l -0.668457,-0.802 z m 29.678791,2.647 v 5.775399 H 56.33651 v -4.2246 h -5.4011 l 1.0695,0.828881 v 3.3957 l 7.994701,9.812801 v 4.224602 2.887699 c 0,1.417099 -1.1497,2.647099 -2.647099,2.647099 h -6.363598 c -1.497299,0 -2.647098,-1.229901 -2.647098,-2.647099 v -5.9626 h 3.663101 v 4.384998 h 4.3316 v -4.2246 l -7.994701,-9.812799 v -7.0856 c 0,-1.4973 1.1497,-2.647101 2.647098,-2.647101 h 6.363602 c 1.497299,0 2.647099,1.1497 2.647099,2.647101 z"
         style="opacity:1;fill:#6075c9;fill-opacity:1;fill-rule:nonzero;stroke:none"
         transform="matrix(8.9673795,0,0,8.9702518,968.61199,320.70413)"
         clip-path="url(#clipPath17)"
         id="path50" /></g></g></svg>
