<svg width="31" height="26" viewBox="0 0 31 26" fill="none" xmlns="http://www.w3.org/2000/svg">
    <path d="M28.542 4.31835C27.5822 4.74068 26.5508 5.02611 25.4684 5.15452C26.5733 4.49731 27.4218 3.4566 27.8213 2.21661C26.7709 2.83517 25.6216 3.27099 24.4232 3.50523C23.447 2.47322 22.0563 1.82825 20.517 1.82825C17.5616 1.82825 15.1655 4.20592 15.1655 7.13847C15.1655 7.55474 15.2129 7.95998 15.3041 8.34874C10.8566 8.12721 6.91347 6.01313 4.27402 2.80031C3.81348 3.5846 3.54959 4.49691 3.54959 5.46998C3.54959 7.31238 4.49441 8.9377 5.93024 9.89004C5.08043 9.86363 4.24931 9.63586 3.50629 9.22576C3.50598 9.248 3.50598 9.27025 3.50598 9.29259C3.50598 11.8655 5.35059 14.0118 7.79858 14.4997C7.01056 14.7124 6.18397 14.7435 5.38197 14.5907C6.0629 16.7004 8.03925 18.2356 10.3809 18.2786C8.54941 19.7028 6.24192 20.5518 3.73482 20.5518C3.30281 20.5518 2.87692 20.5267 2.45825 20.4776C4.82647 21.9844 7.63933 22.8635 10.6614 22.8635C20.5046 22.8635 25.8871 14.7717 25.8871 7.75432C25.8871 7.524 25.882 7.29499 25.8716 7.06729C26.9193 6.31574 27.8235 5.38486 28.542 4.31835" fill="#55ACEE"/>
</svg>
