<svg width="18" height="19" fill="none" xmlns="http://www.w3.org/2000/svg"><path d="M8.415 0.033 C 6.848 0.119,5.202 0.758,3.918 1.781 C 3.544 2.078,2.941 2.680,2.636 3.060 C 1.884 3.995,1.366 5.080,1.097 6.280 C 0.923 7.055,0.928 6.937,0.909 10.669 L 0.891 14.124 0.768 14.143 C 0.700 14.153,0.575 14.196,0.490 14.237 C -0.133 14.539,-0.131 15.426,0.493 15.792 L 0.626 15.870 9.000 15.870 L 17.374 15.870 17.505 15.793 C 17.650 15.708,17.822 15.532,17.893 15.393 C 17.987 15.213,18.008 15.019,17.957 14.820 C 17.867 14.468,17.618 14.225,17.275 14.154 L 17.100 14.118 17.098 11.641 C 17.096 10.279,17.084 8.665,17.071 8.055 C 17.047 6.980,17.043 6.931,16.954 6.508 C 16.669 5.149,16.158 4.049,15.340 3.030 C 15.062 2.683,14.446 2.070,14.100 1.795 C 12.744 0.716,11.103 0.094,9.480 0.043 C 9.208 0.035,8.944 0.024,8.895 0.020 C 8.845 0.016,8.629 0.022,8.415 0.033 M9.570 1.802 C 12.259 2.047,14.521 3.987,15.114 6.555 C 15.275 7.252,15.274 7.213,15.291 10.793 L 15.308 14.130 9.004 14.130 L 2.700 14.130 2.701 11.497 C 2.703 8.156,2.728 7.294,2.835 6.780 C 2.983 6.070,3.282 5.315,3.653 4.718 C 4.891 2.725,7.202 1.586,9.570 1.802 M7.395 16.849 C 7.119 16.993,6.968 17.161,6.917 17.380 C 6.865 17.604,7.115 18.042,7.496 18.395 C 7.828 18.703,8.250 18.893,8.755 18.963 C 9.179 19.022,9.760 18.895,10.156 18.658 C 10.501 18.450,10.894 18.024,11.024 17.715 C 11.165 17.382,11.023 17.064,10.647 16.874 L 10.502 16.800 8.993 16.801 C 7.685 16.802,7.473 16.809,7.395 16.849 " fill="#777E91" stroke="none" fill-rule="evenodd"></path></svg>