<svg xmlns="http://www.w3.org/2000/svg" xmlns:xlink="http://www.w3.org/1999/xlink" version="1.1" width="256" height="256" viewBox="0 0 256 256" xml:space="preserve"><path d="M125.013 1.718 C 102.966 2.941,81.488 10.168,62.720 22.679 C 54.329 28.272,50.346 31.530,43.269 38.590 C 33.447 48.388,26.452 57.928,20.393 69.788 C 5.392 99.153,2.167 131.498,11.124 162.744 C 19.827 193.102,40.241 219.746,67.353 236.131 C 83.491 245.885,102.484 252.010,122.453 253.902 C 129.610 254.580,143.155 254.165,150.615 253.039 C 185.774 247.735,217.131 228.238,236.771 199.467 C 240.723 193.678,245.147 185.873,247.628 180.317 C 249.937 175.143,250.016 173.525,248.033 171.965 C 246.350 170.641,244.598 170.897,239.743 173.176 C 230.641 177.451,220.765 180.345,211.080 181.578 C 203.545 182.537,190.442 182.244,183.680 180.964 C 163.961 177.234,147.696 168.705,133.973 154.899 C 118.723 139.556,109.255 119.500,107.039 97.846 C 106.448 92.078,106.806 79.676,107.720 74.240 C 112.002 48.760,126.456 26.182,147.577 11.980 C 151.752 9.173,152.715 7.773,152.054 5.469 C 151.427 3.284,150.067 2.642,145.067 2.171 C 138.167 1.522,131.337 1.368,125.013 1.718 " stroke="none" fill-rule="evenodd" fill=" rgb(0,0,0)"></path></svg>