<?xml version="1.0" encoding="UTF-8" standalone="no"?>
<!-- Created with Inkscape (http://www.inkscape.org/) -->

<svg width="395.72339951569955" height="262.14375" viewBox="0 0 175 115.92732779043052" class="css-1j8o68f"><defs id="SvgjsDefs5703"></defs><g id="SvgjsG5704" featurekey="symbolFeature-0" transform="matrix(2.089420475625633,0,0,2.089420475625633,-58.49733314820504,-48.54350151049071)" fill="#4285f4"><g xmlns="http://www.w3.org/2000/svg"><path style="" d="M70.014,45.683c0-5.567-2.531-10.55-6.499-13.871c-1.988-4.482-6.3-8.579-11.588-8.579   c-5.289,0-9.602,4.098-11.59,8.581c-3.966,3.321-6.497,8.303-6.497,13.869c0,9.973,8.114,18.087,18.087,18.087   S70.014,55.656,70.014,45.683z M51.926,25.673c2.598,0,4.949,1.348,6.752,3.243c-2.089-0.844-4.364-1.32-6.752-1.32   c-2.388,0-4.663,0.476-6.752,1.32C46.977,27.021,49.328,25.673,51.926,25.673z M51.926,60.11c-7.955,0-14.428-6.472-14.428-14.428   c0-7.956,6.472-14.428,14.428-14.428c7.956,0,14.428,6.472,14.428,14.428C66.354,53.638,59.882,60.11,51.926,60.11z" fill="#4285f4"></path><path style="" d="M51.496,34.068c-0.505,0-0.915,0.41-0.915,0.915s0.41,0.915,0.915,0.915   c6.214,0,10.723,5.022,10.723,11.943c0,0.505,0.41,0.915,0.915,0.915s0.915-0.41,0.915-0.915   C64.049,39.86,58.77,34.068,51.496,34.068z" fill="#4285f4"></path><path style="" d="M34.376,60.791l-5.51,3.4c-0.86,0.531-1.127,1.658-0.596,2.518c0.345,0.56,0.945,0.869,1.559,0.869   c0.328,0,0.66-0.088,0.959-0.273l5.51-3.4c0.86-0.531,1.127-1.658,0.596-2.518C36.363,60.527,35.234,60.259,34.376,60.791z" fill="#4285f4"></path><path style="" d="M67.555,63.905l5.511,3.4c0.3,0.185,0.631,0.273,0.959,0.273c0.614,0,1.213-0.309,1.559-0.869   c0.531-0.86,0.264-1.987-0.596-2.518l-5.511-3.4c-0.861-0.532-1.988-0.263-2.518,0.596C66.428,62.247,66.695,63.374,67.555,63.905z   " fill="#4285f4"></path><path style="" d="M50.096,69.148v7.738c0,1.011,0.819,1.83,1.83,1.83s1.83-0.819,1.83-1.83v-7.738   c0-1.011-0.819-1.83-1.83-1.83S50.096,68.137,50.096,69.148z" fill="#4285f4"></path></g></g><g id="SvgjsG5705" featurekey="pulpyG-0" transform="matrix(4.517732051771999,0,0,4.517732051771999,121.38581349689339,-0.10639015640947846)" fill="#4285f4"><path d="M2.68 11.7 l2.08 0 l0 1.9 l-2.08 0 l0 4.5 l3.06 0 l0 1.9 l-4.94 0 l0 -14 l4.94 0 l0 1.9 l-3.06 0 l0 3.8 z M9.807500000000001 7.9 l0 12.1 l-1.9 0 l0 -12.1 l-2.3 0 l0 -1.9 l6.26 0 l0 1.9 l-2.06 0 z"></path></g></svg>
