<svg fill="#000000" height="800px" width="800px" version="1.1" id="Capa_1" xmlns="http://www.w3.org/2000/svg"
     viewBox="0 0 490 490" xml:space="preserve">
<g id="bold_copy_14_">
	<path d="M467.031,122.117l-87.281-7.626l-7.656-83.958l-73.5,35.111L248.063,0l-47.469,67.161l-76.563-39.69l-4.594,87.021
		l-85.75,4.578l32.156,82.427L0,241.187l67.375,50.378l-33.687,71.739l84.219,9.157l4.594,85.49l78.094-36.643L252.656,490
		l45.937-68.692l71.969,35.111l6.125-85.49l84.219-1.531l-30.625-70.223L490,245.766l-64.313-51.894L467.031,122.117z
		 M442.73,246.96l-32.861,29.4l-16.507,14.761l8.851,20.304l12.296,28.19l-38.373,0.689l-27.991,0.505l-2.006,27.93l-2.879,40.272
		l-31.238-15.236l-24.025-11.714l-14.853,22.218l-22.035,32.952l-26.092-34.438l-14.976-19.753l-22.448,10.535l-36.949,17.334
		l-2.159-40.103l-1.393-25.985l-25.878-2.817l-41.573-4.517l15.45-32.922l10.612-22.601l-19.998-14.945l-30.916-23.122
		l26.858-16.185l22.096-13.322l-9.371-24.041l-16.767-42.967l43.457-2.327l27.501-1.47l1.455-27.501l2.082-39.567l34.392,17.824
		l23.704,12.281l15.404-21.805l23.52-33.274l25.204,32.754l15.113,19.631l22.356-10.673l33.795-16.139l3.66,40.134l2.328,25.495
		l25.511,2.236l39.43,3.445l-17.364,30.135l-13.077,22.678l20.381,16.446L442.73,246.96z"/>
    <path d="M299.022,244.342c-10.581,0-18.926,3.369-25.036,10.06c-6.11,6.707-9.172,17.012-9.172,30.931
		c0,13.98,3.047,24.332,9.172,31.023c6.094,6.707,14.547,10.06,25.358,10.06c10.443,0,18.727-3.353,24.822-10.06
		c6.11-6.707,9.172-17.043,9.172-31.023c0-13.904-3.047-24.209-9.172-30.931C318.071,247.71,309.695,244.342,299.022,244.342z
		 M306.128,305.561c-1.684,2.542-4.134,3.813-7.319,3.813c-3.093,0-5.528-1.317-7.304-3.92c-2.328-3.4-3.507-10.137-3.507-20.228
		c0-10.091,1.164-16.874,3.507-20.335c1.684-2.542,4.134-3.813,7.304-3.813c3.185,0,5.65,1.271,7.411,3.813
		c2.251,3.476,3.399,10.244,3.399,20.335C309.619,295.317,308.47,302.1,306.128,305.561z"/>
    <polygon points="277.432,162.282 194.729,326.11 216.748,326.11 298.823,162.282 	"/>
    <path d="M228.616,203.258c0-13.98-3.047-24.301-9.157-30.977s-14.562-9.999-25.373-9.999c-10.443,0-18.727,3.353-24.822,10.06
		c-6.11,6.707-9.172,17.012-9.172,30.931c0,13.98,3.047,24.301,9.172,30.962c6.094,6.676,14.562,9.999,25.358,9.999
		c10.458,0,18.727-3.354,24.837-10.045C225.553,227.467,228.616,217.177,228.616,203.258z M201.497,223.379
		c-1.761,2.542-4.226,3.813-7.411,3.813c-3.093,0-5.528-1.271-7.304-3.813c-2.327-3.461-3.507-10.229-3.507-20.32
		c0-10.091,1.164-16.89,3.507-20.335c1.761-2.542,4.196-3.813,7.304-3.813c3.185,0,5.65,1.301,7.411,3.92
		c2.251,3.399,3.399,10.137,3.399,20.228S203.763,219.918,201.497,223.379z"/>
</g>
</svg>
