<?xml version="1.0" encoding="utf-8"?><!-- Uploaded to: SVG Repo, www.svgrepo.com, Generator: SVG Repo Mixer Tools -->
<svg width="800px" height="800px" viewBox="0 0 25 25" fill="none" xmlns="http://www.w3.org/2000/svg">
<path d="M22 10.56C22 9.49913 21.5786 8.48171 20.8284 7.73157C20.0783 6.98142 19.0609 6.56 18 6.56H6C4.93913 6.56 3.92178 6.98142 3.17163 7.73157C2.42149 8.48171 2 9.49913 2 10.56" stroke="#000000" stroke-width="1.5" stroke-linecap="round" stroke-linejoin="round"/>
<path d="M21.9999 10.56L20.9999 18.56C20.8507 19.6487 20.3192 20.649 19.5002 21.3818C18.6813 22.1146 17.6285 22.5322 16.5299 22.56H7.38989C6.29132 22.5322 5.23847 22.1146 4.41956 21.3818C3.60064 20.649 3.0691 19.6487 2.91992 18.56L1.91992 10.56" stroke="#000000" stroke-width="1.5" stroke-linecap="round" stroke-linejoin="round"/>
<path d="M8.00977 6.25C8.00977 5.18913 8.43119 4.17172 9.18134 3.42157C9.93148 2.67142 10.9489 2.25 12.0098 2.25C13.0706 2.25 14.0881 2.67142 14.8382 3.42157C15.5883 4.17172 16.0098 5.18913 16.0098 6.25" stroke="#000000" stroke-width="1.5" stroke-linecap="round" stroke-linejoin="round"/>
</svg>
