<svg width="24" height="24" viewBox="0 0 24 24" fill="none" xmlns="http://www.w3.org/2000/svg">
    <path d="M10.86 1.59156C10.7496 1.53117 10.6258 1.49951 10.5 1.49951C10.3742 1.49951 10.2504 1.53117 10.14 1.59156L2.55 5.73156C2.247 5.89656 1.9995 6.13206 1.8195 6.41106L10.5 11.1451L19.1805 6.41106C18.9978 6.12732 18.7466 5.89415 18.45 5.73306L10.86 1.59006V1.59156ZM1.5 15.0001V7.94556L10.14 12.6586C10.2504 12.719 10.3742 12.7506 10.5 12.7506C10.6258 12.7506 10.7496 12.719 10.86 12.6586L19.5 7.94556V15.0001C19.5 15.7957 19.1839 16.5588 18.6213 17.1214C18.0587 17.684 17.2956 18.0001 16.5 18.0001H4.5C3.70435 18.0001 2.94129 17.684 2.37868 17.1214C1.81607 16.5588 1.5 15.7957 1.5 15.0001ZM4.902 19.5001C5.1653 19.9561 5.544 20.3348 6.00004 20.5981C6.45609 20.8614 6.9734 21 7.5 21.0001H16.5C18.0913 21.0001 19.6174 20.3679 20.7426 19.2427C21.8679 18.1175 22.5 16.5914 22.5 15.0001V9.00006C22.5 8.47346 22.3614 7.95615 22.0981 7.5001C21.8348 7.04406 21.456 6.66536 21 6.40206V15.0001C21 16.1935 20.5259 17.3381 19.682 18.182C18.8381 19.026 17.6935 19.5001 16.5 19.5001H4.902Z" fill="white"/>
</svg>
