<?xml version="1.0" encoding="utf-8"?><!-- Uploaded to: SVG Repo, www.svgrepo.com, Generator: SVG Repo Mixer Tools -->
<svg width="800px" height="800px" viewBox="0 0 24 24" fill="none" xmlns="http://www.w3.org/2000/svg">
<path d="M21 6V18C21 19.0609 20.5786 20.0783 19.8284 20.8284C19.0783 21.5786 18.0609 22 17 22H7C5.93913 22 4.92178 21.5786 4.17163 20.8284C3.42149 20.0783 3 19.0609 3 18V14.89C3 11.4714 4.35811 8.19273 6.77545 5.77539C9.1928 3.35805 12.4714 2 15.89 2H17C18.0609 2 19.0783 2.42142 19.8284 3.17157C20.5786 3.92172 21 4.93913 21 6V6Z" stroke="#000000" stroke-width="1.5" stroke-linecap="round" stroke-linejoin="round"/>
<path d="M3 15.06C3 9.9 8.5 14.0599 11.73 10.8199C14.96 7.57995 10.83 2 15.98 2" stroke="#000000" stroke-width="1.5" stroke-linecap="round" stroke-linejoin="round"/>
</svg>