<svg width="17" height="14" viewBox="0 0 17 14" fill="none" xmlns="http://www.w3.org/2000/svg">
    <path d="M17.0002 2.10669H16.3473C16.1048 2.10669 15.762 2.4509 15.762 2.67127V10.6584C15.762 10.8791 16.1048 11.1798 16.3473 11.1798H17.0002V13.0757H11.0841V11.1798H12.3224V2.78379H12.2617L9.37012 13.0757H7.13141L4.27712 2.78379H4.20489V11.1798H5.44315V13.0757H0.490112V11.1798H1.12435C1.38554 11.1798 1.72837 10.8791 1.72837 10.6584V2.67127C1.72837 2.4509 1.38554 2.10669 1.12435 2.10669H0.490112V0.210818H6.68367L8.71713 7.6589H8.77307L10.8253 0.210818H17.0002V2.10669Z" fill="#B6BAC7"/>
</svg>
