<svg width="29" height="49" viewBox="0 0 29 49" fill="none" xmlns="http://www.w3.org/2000/svg">
    <g clip-path="url(#clip0_724_7128)">
        <path d="M6.28592 10.4015C6.7004 10.5013 7.12422 10.5549 7.55003 10.5614L12.1891 22.4606L1.75119 23.1414L11.789 26.3737L7.26009 32.643C6.84016 32.486 6.40455 32.3768 5.96115 32.3174C4.58919 32.1167 3.19503 32.4756 2.08042 33.3166C0.9658 34.1576 0.220488 35.4129 0.00580052 36.8107C-0.034029 37.5312 0.0666207 38.2527 0.301972 38.9332C0.537323 39.6137 0.902652 40.2397 1.3768 40.775C1.85094 41.3103 2.42444 41.7441 3.06407 42.0514C3.70369 42.3586 4.39672 42.5332 5.10293 42.565C6.39626 42.6257 7.66836 42.213 8.69005 41.4011C9.71173 40.5893 10.4158 39.4317 10.6756 38.1368C10.8044 37.3106 10.7362 36.465 10.4768 35.6714C10.2173 34.8779 9.77436 34.16 9.18534 33.5784L13.9984 26.948L18.968 39.457C17.8529 40.1362 17.0449 41.2367 16.7192 42.52C16.3936 43.8032 16.5765 45.1658 17.2283 46.3124C17.2283 46.4426 17.3559 46.5077 17.4197 46.6024C18.2259 47.7687 19.4344 48.5804 20.8026 48.8747C22.1707 49.1689 23.5973 48.924 24.7958 48.189C25.9109 47.5188 26.7202 46.4245 27.0463 45.1461C27.3724 43.8677 27.1887 42.5095 26.5355 41.3691C26.5355 41.2389 26.4079 41.1738 26.3441 41.0791C25.8933 40.4064 25.3013 39.8448 24.6112 39.4352C23.921 39.0256 23.1501 38.7782 22.3545 38.711C21.9184 38.6112 21.4735 38.5576 21.0266 38.5512L16.3875 26.6224L26.8254 25.9416L16.9152 22.7092L21.3803 16.4399C21.8035 16.6021 22.2376 16.7326 22.6793 16.8307C24.0724 17.0952 25.5115 16.7887 26.6849 15.9775C27.8582 15.1664 28.6712 13.916 28.9478 12.4972C29.1452 11.0747 28.7836 9.63015 27.9416 8.47889C27.0996 7.32764 25.8457 6.56313 24.4537 6.35222C23.0605 6.0877 21.6215 6.3942 20.4481 7.20532C19.2748 8.01644 18.4617 9.26686 18.1852 10.6857C18.0539 11.5119 18.1209 12.3583 18.3805 13.1522C18.64 13.9462 19.0844 14.664 19.6754 15.2441L14.671 22.1646L9.70144 9.62007C10.8295 8.94641 11.6539 7.84804 11.9976 6.56077C12.3413 5.2735 12.1769 3.89997 11.5396 2.73509C11.5396 2.60484 11.4121 2.53973 11.3483 2.44501C10.5595 1.26751 9.36261 0.43922 7.9991 0.1272C6.63558 -0.184821 5.20684 0.0426457 4.00114 0.76372C2.87516 1.42274 2.05009 2.50948 1.70574 3.78701C1.36139 5.06454 1.52575 6.42925 2.16295 7.58358C2.16295 7.71382 2.2905 7.77894 2.35429 7.87366C2.77054 8.59154 3.35084 9.19587 4.04559 9.63504C4.74034 10.0742 5.52889 10.3352 6.34389 10.3956L6.28592 10.4015Z" fill="#3772FF"/>
    </g>
    <defs>
        <clipPath id="clip0_724_7128">
            <rect width="29" height="49" fill="white"/>
        </clipPath>
    </defs>
</svg>
