<svg width="15" height="13" viewBox="0 0 15 13" fill="none" xmlns="http://www.w3.org/2000/svg">
    <path d="M5.8196 12.0229C5.38179 12.0229 5.45618 11.8648 5.30518 11.4661L4.0177 7.41317L13.9282 1.78955" fill="#9399AB"/>
    <path d="M5.81982 12.023C6.15768 12.023 6.30696 11.8752 6.49554 11.6999L8.29744 10.0239L6.04979 8.72754" fill="#70788E"/>
    <path d="M6.04945 8.72785L11.4957 12.5766C12.1172 12.9046 12.5657 12.7348 12.7205 12.0247L14.9374 2.03225C15.1644 1.16185 14.5906 0.767076 13.996 1.02526L0.978404 5.82645C0.0898302 6.16735 0.0950105 6.64152 0.816436 6.8528L4.15705 7.8501L11.8909 3.18314C12.256 2.97137 12.5911 3.08522 12.3161 3.31869" fill="#B6BAC7"/>
</svg>
