<svg width="18" height="14" viewBox="0 0 18 14" fill="none" xmlns="http://www.w3.org/2000/svg">
    <path fill-rule="evenodd" clip-rule="evenodd" d="M17.0328 1.84074C16.4253 2.11794 15.7726 2.30451 15.0877 2.38931C15.7868 1.95841 16.3239 1.27627 16.5767 0.463756C15.9222 0.862595 15.1973 1.15225 14.4257 1.30834C13.8081 0.632302 12.9276 0.210938 11.9535 0.210938C10.0832 0.210938 8.56631 1.76919 8.56631 3.69051C8.56631 3.96347 8.59598 4.229 8.65402 4.48368C5.83853 4.33792 3.3424 2.95193 1.67204 0.847754C1.38053 1.36187 1.2135 1.9592 1.2135 2.59681C1.2135 3.80393 1.81147 4.86887 2.72005 5.49336C2.16541 5.47481 1.64276 5.31846 1.18615 5.05742V5.10115C1.18615 6.78793 2.35476 8.1938 3.90258 8.5138C3.61882 8.59331 3.31957 8.63571 3.01181 8.63571C2.79357 8.63571 2.581 8.61451 2.37462 8.57343C2.80543 9.95625 4.05659 10.9622 5.53864 10.9903C4.37931 11.9231 2.91868 12.4797 1.33113 12.4797C1.05768 12.4797 0.788618 12.4638 0.523682 12.4312C2.02249 13.4186 3.80327 13.9947 5.71599 13.9947C11.946 13.9947 15.3531 8.69189 15.3531 4.09398C15.3531 3.94293 15.3498 3.7932 15.3433 3.64347C16.0053 3.1532 16.5798 2.5397 17.0338 1.84141" fill="#B6BAC7"/>
</svg>
