<?xml version="1.0" encoding="utf-8"?><!-- Uploaded to: SVG Repo, www.svgrepo.com, Generator: SVG Repo Mixer Tools -->
<svg width="800px" height="800px" viewBox="0 0 24 24" fill="none" xmlns="http://www.w3.org/2000/svg">
<path d="M12.1303 13C13.8203 13 15.1903 11.63 15.1903 9.94C15.1903 8.25001 13.8203 6.88 12.1303 6.88C10.4403 6.88 9.07031 8.25001 9.07031 9.94C9.07031 11.63 10.4403 13 12.1303 13Z" stroke="#000000" stroke-width="1.5" stroke-linecap="round" stroke-linejoin="round"/>
<path d="M17 3H7C4.79086 3 3 4.79086 3 7V17C3 19.2091 4.79086 21 7 21H17C19.2091 21 21 19.2091 21 17V7C21 4.79086 19.2091 3 17 3Z" stroke="#000000" stroke-width="1.5" stroke-linecap="round" stroke-linejoin="round"/>
<path d="M6.30969 20.52C6.27753 19.7534 6.40079 18.9882 6.67199 18.2704C6.94319 17.5526 7.35674 16.8971 7.88781 16.3433C8.41888 15.7894 9.05649 15.3488 9.76226 15.0477C10.468 14.7467 11.2274 14.5916 11.9947 14.5916C12.762 14.5916 13.5214 14.7467 14.2272 15.0477C14.9329 15.3488 15.5705 15.7894 16.1016 16.3433C16.6326 16.8971 17.0462 17.5526 17.3174 18.2704C17.5886 18.9882 17.7118 19.7534 17.6797 20.52" stroke="#000000" stroke-width="1.5" stroke-linecap="round" stroke-linejoin="round"/>
</svg>